<?xml version="1.0" standalone="no"?>
<!DOCTYPE svg PUBLIC "-//W3C//DTD SVG 20010904//EN"
 "http://www.w3.org/TR/2001/REC-SVG-20010904/DTD/svg10.dtd">
<svg version="1.0" xmlns="http://www.w3.org/2000/svg"
 width="500.000000pt" height="500.000000pt" viewBox="0 0 500.000000 500.000000"
 preserveAspectRatio="xMidYMid meet">
<metadata>
Created by potrace 1.14, written by Peter Selinger 2001-2017
</metadata>
<g transform="translate(0.000000,500.000000) scale(0.100000,-0.100000)"
fill="#000000" stroke="none">
<path d="M1074 3748 c-3 -5 -9 -6 -14 -3 -5 3 -12 0 -16 -6 -4 -8 -9 -7 -15 2
-5 8 -9 9 -9 4 0 -6 -8 -11 -17 -12 -10 -1 -35 -9 -55 -17 -21 -9 -40 -16 -43
-16 -3 1 -13 -6 -21 -15 -9 -8 -20 -13 -25 -10 -5 4 -9 1 -9 -4 0 -6 -6 -10
-12 -8 -7 1 -12 -3 -11 -10 2 -7 -4 -10 -12 -7 -8 4 -15 1 -15 -5 0 -6 -7 -11
-15 -11 -8 0 -15 -4 -15 -9 0 -8 -21 -17 -59 -26 -8 -2 -17 -8 -20 -13 -3 -5
-16 -8 -28 -7 -13 1 -23 -4 -23 -11 0 -8 -6 -11 -15 -8 -8 4 -15 1 -15 -7 0
-7 -3 -10 -6 -6 -3 3 -18 -5 -32 -19 -15 -13 -32 -24 -39 -24 -7 0 -12 -6 -11
-12 2 -7 -2 -12 -9 -11 -6 2 -15 -6 -18 -17 -3 -10 -15 -22 -26 -25 -11 -4
-18 -14 -17 -23 2 -11 -3 -17 -14 -16 -10 1 -15 -5 -13 -16 2 -13 -3 -16 -21
-14 -13 1 -22 -2 -21 -8 1 -5 -8 -14 -21 -19 -17 -6 -21 -6 -17 4 4 6 -4 1
-16 -13 -14 -16 -20 -19 -16 -8 3 10 1 20 -5 24 -6 4 -8 3 -5 -3 4 -6 -2 -18
-12 -27 -14 -13 -21 -14 -27 -5 -4 8 -3 10 4 5 17 -10 15 -1 -3 14 -12 10 -14
8 -10 -9 2 -12 -3 -25 -13 -32 -16 -10 -16 -10 0 -5 19 6 25 -8 9 -18 -11 -7
-3 -69 10 -77 11 -6 8 -37 -5 -58 -6 -10 -5 -12 2 -7 7 4 12 3 12 -3 0 -5 -5
-13 -11 -16 -6 -4 -8 -13 -5 -21 3 -8 1 -14 -3 -14 -5 0 -8 -11 -6 -25 1 -14
-2 -28 -6 -31 -5 -3 -9 -23 -9 -45 0 -22 -3 -38 -8 -36 -4 3 -7 -19 -7 -49 0
-30 3 -54 6 -54 3 0 6 -20 6 -45 0 -25 6 -52 13 -60 7 -8 9 -15 4 -15 -4 0 -3
-5 3 -11 6 -6 9 -18 6 -27 -5 -11 -3 -13 7 -7 10 6 12 3 8 -13 -4 -12 0 -26 8
-33 8 -6 11 -15 8 -20 -3 -5 0 -9 6 -9 6 0 8 -4 5 -10 -3 -5 -3 -10 2 -10 4 0
14 -12 21 -27 13 -31 44 -72 84 -113 15 -16 24 -31 21 -34 -4 -3 -1 -6 6 -6 7
0 26 -13 41 -30 15 -16 31 -30 34 -30 4 0 18 -12 31 -26 13 -14 26 -25 29 -25
20 3 26 0 23 -11 -1 -7 4 -12 11 -10 7 1 15 -5 18 -13 4 -8 12 -15 19 -15 17
0 64 -39 48 -40 -7 0 -14 1 -16 3 -2 1 -11 -6 -21 -16 -10 -9 -22 -14 -28 -11
-6 4 -8 2 -5 -4 4 -5 -7 -22 -24 -36 -17 -14 -25 -26 -18 -26 7 0 2 -9 -11
-20 -13 -11 -19 -20 -14 -20 5 0 1 -5 -9 -11 -9 -6 -15 -14 -12 -20 4 -5 1 -9
-4 -9 -6 0 -11 5 -11 10 0 22 -2 25 -23 36 -34 19 -69 6 -114 -42 -23 -24 -39
-44 -35 -44 3 0 -4 -10 -16 -23 -12 -13 -19 -27 -15 -30 3 -4 0 -7 -7 -7 -7 0
-10 -3 -7 -6 4 -4 -2 -19 -12 -33 -10 -14 -16 -32 -14 -38 3 -7 0 -13 -6 -13
-5 0 -8 -9 -6 -20 2 -11 0 -20 -4 -20 -4 0 -7 -16 -6 -35 1 -19 -2 -35 -6 -35
-9 0 -8 -131 1 -145 3 -5 7 -26 9 -45 2 -19 6 -37 10 -40 4 -3 6 -12 6 -20 -1
-8 4 -25 12 -37 7 -13 10 -23 7 -23 -4 0 -1 -8 7 -17 8 -10 21 -31 29 -48 8
-16 27 -42 41 -57 15 -14 25 -29 21 -32 -3 -3 0 -6 6 -6 7 0 25 -14 40 -30 16
-16 33 -30 37 -30 5 0 22 -10 39 -23 17 -13 38 -23 46 -22 8 0 21 -6 29 -13 7
-7 20 -11 27 -8 7 3 16 2 18 -3 11 -17 351 -18 374 0 1 1 10 2 20 4 19 2 41
10 90 31 25 11 31 11 26 2 -6 -9 -3 -9 9 1 9 7 17 10 17 5 0 -5 4 -3 9 5 5 8
20 16 33 18 13 2 25 8 26 13 2 6 8 10 14 10 5 0 23 9 39 21 16 11 29 17 29 14
0 -4 7 1 16 9 8 9 20 14 25 11 5 -4 9 1 9 9 0 9 3 15 8 15 4 -1 10 0 15 1 4 1
10 3 15 4 18 4 88 41 94 50 4 6 8 7 8 3 0 -5 7 -1 16 7 8 9 20 14 25 11 5 -4
9 -1 9 6 0 7 3 10 6 6 3 -3 15 3 27 13 11 11 25 17 30 13 6 -3 7 -1 3 6 -4 6
0 14 10 18 32 12 141 112 136 126 -1 4 4 7 10 8 16 0 78 93 78 114 0 9 7 18
15 21 8 4 12 10 9 15 -3 5 -2 15 3 22 9 14 12 28 17 84 2 23 7 47 11 52 3 6 1
11 -6 11 -8 0 -9 3 0 13 6 8 8 16 6 19 -6 6 -16 44 -17 66 -1 6 -6 12 -11 12
-6 0 -8 3 -4 6 3 4 -2 23 -13 43 -13 26 -15 42 -8 54 5 10 13 15 18 12 5 -3
14 4 20 16 7 11 14 18 18 15 3 -4 11 3 18 15 6 13 20 24 30 25 35 5 53 10 60
17 20 19 34 5 34 -33 0 -25 5 -43 14 -46 9 -4 13 -21 11 -60 -1 -30 2 -57 6
-59 9 -6 24 -83 20 -107 -1 -10 4 -28 11 -40 7 -13 12 -26 13 -30 0 -3 3 -10
8 -14 4 -4 7 -15 7 -25 0 -10 8 -20 19 -24 16 -5 56 -74 56 -97 0 -16 49 -84
78 -107 29 -24 72 -30 118 -15 22 6 47 84 27 84 -4 0 -8 6 -8 13 0 7 -9 19
-20 27 -29 21 -67 109 -65 148 1 18 -2 32 -6 32 -9 0 -24 58 -22 88 1 12 -2
22 -7 22 -4 0 -7 6 -6 13 2 17 16 37 25 37 12 0 28 -43 25 -65 -2 -11 1 -22 5
-25 5 -3 24 -39 44 -80 43 -90 117 -168 162 -171 35 -3 105 18 105 32 0 5 -4
9 -8 9 -4 0 -8 8 -9 18 -2 31 -9 46 -35 87 -15 24 -22 44 -17 51 5 6 4 15 -3
22 -7 7 -13 17 -14 24 -16 81 -23 110 -31 120 -6 7 -10 28 -8 46 1 17 -3 32
-8 32 -6 0 -7 15 -2 38 4 20 7 45 7 54 -1 9 15 24 34 33 19 9 34 20 34 25 0 6
3 9 8 8 12 -3 73 36 102 65 15 15 31 27 37 27 16 0 70 -138 64 -167 -1 -7 4
-14 11 -14 54 -6 76 -3 96 10 21 12 23 20 18 55 -9 60 -8 80 5 112 7 16 13 42
14 58 1 17 7 32 13 34 7 2 12 10 12 18 0 8 4 14 9 14 5 0 7 9 4 20 -3 12 0 20
7 20 7 0 10 7 6 15 -3 8 -1 15 5 15 6 0 9 -21 7 -52 -1 -29 0 -57 3 -63 4 -5
6 -31 6 -58 0 -26 3 -51 7 -54 11 -11 78 -11 103 0 15 7 21 17 19 36 -1 14 1
37 6 50 5 13 13 51 18 85 10 62 17 99 20 104 2 1 3 5 4 10 12 44 28 100 33
112 3 8 7 20 8 25 5 20 41 79 52 82 6 2 9 -7 8 -22 -2 -14 1 -25 6 -25 5 0 9
-8 9 -17 0 -23 40 -80 65 -91 21 -10 31 -47 15 -57 -5 -3 -6 -18 -3 -33 4 -15
7 -74 7 -132 1 -58 3 -107 6 -110 12 -12 32 -55 36 -78 7 -37 23 -62 40 -62 8
0 12 -4 9 -10 -3 -5 -1 -11 4 -11 40 -5 51 -7 54 -9 6 -6 57 -8 57 -2 0 4 8 8
18 9 39 3 108 27 120 42 66 83 63 81 106 81 36 0 48 -6 81 -39 22 -22 43 -37
47 -35 5 3 8 1 8 -3 0 -13 34 -17 150 -17 86 -1 165 6 165 14 0 1 9 3 20 5 30
4 129 48 137 61 4 6 32 19 62 29 31 11 56 23 56 27 0 4 7 8 16 8 8 0 12 5 9
10 -3 6 -1 10 6 10 23 0 86 80 104 134 14 40 25 56 41 60 22 6 26 20 11 44 -5
6 -5 17 -2 22 3 6 1 10 -4 10 -6 0 -11 6 -11 14 0 8 -11 23 -25 34 -31 24 -35
89 -8 115 45 43 109 96 115 97 4 0 16 14 28 31 22 30 22 31 3 47 -10 9 -24 18
-30 19 -61 12 -58 13 -88 -49 -22 -44 -39 -65 -62 -76 -18 -9 -33 -19 -33 -22
0 -4 -22 -6 -48 -6 -41 1 -53 6 -84 39 -20 20 -43 37 -50 37 -15 0 -58 40 -58
54 0 5 10 17 22 27 11 11 18 19 14 19 -4 0 4 15 18 33 13 17 26 39 28 47 2 8
7 18 12 21 4 4 11 33 15 65 12 113 -37 168 -149 167 -113 -1 -173 -28 -266
-119 -35 -34 -38 -40 -39 -101 -2 -44 3 -76 15 -101 10 -19 15 -44 12 -55 -5
-19 -6 -19 -26 6 -12 15 -35 44 -53 64 -17 21 -29 41 -27 45 8 12 34 10 34 -3
0 -5 5 -7 10 -4 13 8 13 82 0 90 -6 4 -8 11 -5 16 4 5 2 9 -4 9 -5 0 -8 11 -5
25 7 39 -32 75 -87 81 -96 10 -109 8 -139 -21 -17 -16 -31 -43 -35 -65 -4 -22
-12 -37 -21 -37 -8 0 -14 4 -14 9 0 14 -119 9 -149 -6 -15 -8 -35 -26 -45 -40
-19 -30 -21 -82 -3 -89 7 -4 3 -8 -10 -12 -13 -4 -23 -11 -23 -16 0 -5 -6 -9
-14 -9 -7 0 -34 -11 -60 -25 -25 -13 -46 -21 -46 -17 0 4 -5 0 -10 -8 -5 -8
-13 -15 -18 -15 -5 0 -16 -8 -26 -17 -21 -22 -36 -23 -36 -3 0 33 -124 52
-180 29 -28 -12 -36 -24 -30 -49 10 -47 9 -48 -20 -14 -16 19 -29 37 -30 42 0
4 -6 7 -13 7 -7 0 -30 16 -52 35 -45 39 -39 37 -115 37 -62 0 -183 -30 -174
-43 3 -5 0 -9 -6 -9 -17 0 -54 21 -62 35 -9 16 -88 -1 -88 -18 0 -6 -20 -30
-45 -54 -25 -23 -45 -49 -45 -58 0 -19 0 -19 -49 7 l-41 22 -30 -22 c-29 -22
-30 -22 -30 -3 0 10 -7 22 -16 25 -8 3 -13 10 -10 14 6 10 -70 83 -78 74 -3
-3 -6 0 -6 6 0 6 -7 9 -15 6 -8 -4 -15 -2 -15 4 0 6 -20 9 -47 7 -73 -6 -87
-9 -101 -23 -8 -7 -17 -10 -20 -8 -4 2 -13 -2 -20 -10 -7 -8 -10 -14 -7 -14 3
0 -6 -11 -21 -25 -15 -14 -23 -25 -18 -25 5 0 3 -4 -4 -9 -7 -4 -31 -7 -53 -5
-21 2 -39 -2 -39 -7 0 -5 -6 -9 -12 -8 -20 2 -58 -12 -58 -22 0 -5 -6 -8 -12
-6 -7 1 -12 -4 -11 -10 2 -7 -1 -13 -6 -13 -17 0 -42 -32 -37 -47 3 -8 1 -11
-4 -8 -6 3 -10 1 -10 -4 0 -6 0 -14 -1 -18 0 -9 -48 -37 -64 -38 -5 -1 -9 -7
-7 -14 1 -7 -1 -10 -6 -7 -5 3 -16 -4 -25 -15 -9 -10 -14 -19 -11 -19 4 0 -1
-11 -10 -25 -9 -13 -16 -31 -16 -40 0 -8 -4 -15 -8 -15 -4 0 -7 -12 -7 -27 1
-16 -2 -32 -6 -38 -4 -5 -9 -28 -10 -50 -5 -52 -17 -66 -41 -46 -10 9 -21 15
-23 14 -3 -2 -14 6 -25 17 -12 12 -26 17 -37 13 -10 -3 -15 -2 -10 2 6 8 -64
54 -88 58 -10 2 -18 8 -54 37 -13 11 -28 17 -32 14 -5 -3 -9 1 -9 10 0 8 -8
13 -17 12 -9 -2 -27 8 -39 21 -12 12 -28 23 -35 23 -8 0 -20 9 -27 20 -7 11
-18 20 -26 20 -8 0 -16 7 -20 15 -3 8 -1 15 5 15 6 0 7 5 3 12 -4 6 -3 8 4 4
6 -3 18 1 26 10 9 8 16 13 16 10 0 -3 17 12 37 34 30 32 40 37 52 27 10 -8 13
-8 8 -1 -6 11 13 17 81 26 6 1 12 5 12 10 0 4 7 8 15 8 9 0 18 7 21 15 4 8 9
13 13 11 3 -1 20 12 38 31 17 18 29 33 26 33 -4 0 4 9 17 20 13 11 20 20 16
20 -4 0 3 10 14 22 11 12 18 28 16 35 -3 7 -2 13 2 13 10 0 57 107 54 123 -1
4 2 7 6 7 4 0 8 8 9 18 0 9 4 28 7 41 17 74 21 159 11 231 -4 25 -7 51 -7 58
-1 6 -5 12 -10 12 -4 0 -7 3 -6 8 4 14 -13 52 -23 52 -6 0 -8 4 -5 9 6 9 -37
57 -80 92 -24 19 -54 32 -74 34 -8 0 -14 7 -12 13 2 10 -3 10 -19 1 -16 -8
-20 -8 -14 1 5 7 1 11 -11 10 -11 -1 -21 -1 -24 0 -15 6 -152 4 -156 -2z m136
-172 c0 -7 3 -7 8 1 8 12 48 -5 103 -42 22 -15 51 -64 44 -75 -3 -6 -2 -10 3
-10 5 0 8 -20 8 -45 -1 -25 3 -45 8 -45 5 0 4 -6 -1 -12 -5 -7 -9 -28 -8 -45
0 -18 -2 -33 -5 -33 -4 0 -6 -10 -5 -22 1 -13 -1 -27 -5 -33 -4 -5 -13 -31
-21 -57 -7 -26 -17 -45 -21 -42 -4 3 -5 -2 -2 -10 3 -9 1 -16 -6 -16 -6 0 -9
-4 -6 -8 3 -5 -3 -18 -14 -29 -10 -12 -17 -23 -14 -26 3 -2 -7 -12 -22 -22
-17 -11 -23 -12 -18 -4 4 8 9 20 10 29 2 8 4 24 6 35 2 11 7 23 11 26 4 3 10
18 13 34 3 16 7 32 10 37 3 4 0 8 -7 8 -8 0 -8 4 1 15 7 8 10 24 7 35 -3 11
-1 22 3 25 4 3 6 13 4 23 -2 9 -6 37 -8 62 -1 25 -8 59 -15 75 -7 17 -13 38
-14 47 -1 9 -4 15 -7 13 -4 -2 -14 9 -24 26 -9 16 -21 29 -27 29 -5 0 -9 7 -9
15 0 8 -5 15 -11 15 -11 0 -39 24 -39 34 0 2 12 3 26 0 16 -3 23 -1 19 6 -3 6
0 7 9 4 9 -3 16 -11 16 -18z m-240 -119 c0 -5 7 -7 15 -3 17 6 105 -33 105
-47 0 -4 6 -5 13 -1 6 4 9 3 4 -1 -4 -5 0 -16 8 -25 21 -23 29 -62 28 -140 -1
-99 -2 -112 -11 -106 -4 2 -7 -8 -6 -22 1 -15 -3 -32 -8 -39 -5 -7 -7 -17 -3
-23 3 -5 1 -10 -4 -10 -6 0 -10 -3 -10 -7 4 -22 -2 -33 -13 -27 -8 5 -9 2 -5
-9 3 -9 2 -19 -4 -22 -5 -4 -7 -11 -4 -16 4 -5 1 -9 -5 -9 -6 0 -15 -11 -20
-25 -5 -14 -14 -25 -20 -25 -6 0 -8 -5 -5 -10 3 -6 -1 -13 -9 -16 -9 -3 -16
-13 -16 -21 0 -10 -6 -13 -16 -9 -8 3 -13 2 -10 -3 3 -5 0 -13 -7 -18 -14 -11
-106 -18 -95 -8 3 4 -3 17 -14 30 -11 13 -20 27 -21 32 0 4 -9 17 -19 27 -9
10 -15 23 -12 28 3 4 1 8 -4 8 -6 0 -13 7 -16 16 -4 10 -2 13 7 8 6 -4 4 2 -5
13 -10 11 -18 27 -18 36 0 9 -4 17 -8 17 -4 0 -8 9 -8 20 0 11 4 20 9 20 5 0
5 6 -1 13 -11 13 -9 157 2 176 4 6 9 21 11 33 3 13 14 35 25 50 11 15 20 31
20 36 0 5 7 15 15 22 8 7 12 17 8 23 -3 6 -1 7 5 3 6 -3 16 3 22 14 6 12 17
19 24 17 7 -3 18 -2 24 2 16 10 52 8 52 -2z m3416 -221 c13 -10 19 -27 19 -55
0 -23 -3 -41 -8 -41 -4 0 -6 -4 -3 -9 4 -5 3 -11 -1 -13 -5 -1 -15 -16 -23
-33 -11 -21 -24 -31 -44 -33 -15 -2 -26 1 -22 6 3 5 -10 24 -29 42 -29 28 -34
39 -30 68 6 45 29 70 69 75 17 2 36 5 42 5 5 1 19 -4 30 -12z m-2286 -406 c9
-11 22 -20 28 -20 15 0 29 -50 25 -95 -5 -65 -13 -105 -23 -105 -5 0 -16 -7
-25 -16 -26 -26 -41 -3 -40 61 1 45 -3 60 -21 80 -29 31 -51 95 -36 104 26 16
75 11 92 -9z m1860 -91 c0 -4 -6 -12 -14 -19 -8 -6 -12 -18 -9 -26 3 -8 0 -14
-6 -14 -6 0 -16 -11 -21 -25 -6 -14 -15 -37 -22 -52 -6 -16 -12 -30 -13 -33
-8 -24 -19 -39 -29 -43 -9 -4 -7 18 9 76 12 45 20 88 17 95 -2 6 1 12 6 12 5
0 15 21 21 47 l12 47 24 -30 c13 -16 24 -32 25 -35z m115 -102 c10 -11 8 -21
-16 -55 -16 -24 -29 -46 -29 -50 0 -14 -61 -82 -73 -81 -8 0 -8 2 1 6 6 2 10
9 6 14 -3 5 0 9 7 9 7 0 10 3 6 6 -3 3 0 13 6 20 7 8 17 20 22 27 6 7 12 21
13 32 2 11 8 22 12 25 5 3 12 18 15 33 8 31 11 32 30 14z m468 -21 c87 -37
118 -132 60 -186 -33 -31 -47 -28 -51 10 -6 60 -10 77 -24 110 -18 42 -42 64
-63 56 -8 -3 -15 -1 -15 4 0 7 11 11 53 19 4 0 22 -5 40 -13z m-893 -121 c7
-8 10 -26 8 -39 -3 -15 1 -27 14 -35 10 -6 17 -14 17 -19 -1 -4 0 -10 1 -14 1
-5 3 -14 4 -20 1 -7 7 -12 14 -10 17 3 15 -26 -2 -44 -8 -8 -13 -24 -11 -35 5
-27 -17 -49 -50 -49 -44 0 -50 16 -50 135 0 83 3 114 15 128 18 21 24 21 40 2z
m653 -3 c4 1 25 -8 47 -22 32 -20 40 -30 38 -49 -3 -22 -38 -42 -38 -22 0 5
-16 7 -35 6 -39 -2 -67 27 -60 61 2 10 4 23 4 27 1 5 6 5 11 2 6 -3 10 0 10 7
0 10 2 10 9 0 4 -8 11 -12 14 -10z m-167 -76 c8 -8 14 -17 14 -21 0 -4 6 -13
14 -21 11 -11 16 -11 19 -1 3 8 17 0 38 -22 l33 -34 -25 -20 c-21 -16 -33 -18
-89 -13 -35 4 -69 11 -75 16 -7 6 -15 7 -18 3 -4 -3 -7 1 -7 10 0 10 -4 17
-10 17 -19 0 -5 24 35 62 45 42 50 44 71 24z m344 -26 c0 -5 -5 -10 -11 -10
-5 0 -7 5 -4 10 3 6 8 10 11 10 2 0 4 -4 4 -10z m-590 -19 c0 -10 -7 -21 -15
-25 -9 -3 -15 0 -15 9 0 8 5 15 11 15 5 0 7 5 4 10 -3 6 -1 10 4 10 6 0 11 -9
11 -19z m-3104 -229 c-7 -7 57 -41 67 -35 4 2 7 -1 7 -7 0 -6 14 -16 30 -21
17 -6 30 -15 30 -20 0 -4 7 -6 15 -3 8 4 15 2 15 -3 0 -5 18 -17 40 -27 22
-10 40 -22 40 -27 0 -6 4 -8 9 -4 5 3 15 0 23 -7 7 -7 33 -24 58 -37 25 -14
53 -33 63 -44 9 -11 17 -17 17 -14 0 3 12 -5 26 -18 15 -14 31 -25 36 -25 5 0
6 -4 3 -10 -3 -5 0 -10 8 -10 7 0 19 -11 25 -25 6 -14 16 -25 22 -25 5 0 10
-7 10 -15 0 -8 4 -15 8 -15 5 0 9 -6 10 -12 3 -42 7 -58 14 -58 8 0 3 -34 -8
-52 -5 -7 -3 -8 5 -3 10 6 11 3 2 -14 -7 -11 -9 -21 -5 -21 4 0 -1 -10 -12
-22 -13 -14 -14 -19 -4 -14 9 5 8 2 -2 -7 -10 -8 -15 -16 -13 -19 3 -3 -9 -20
-27 -39 -18 -19 -32 -37 -30 -41 1 -5 -4 -8 -12 -8 -8 0 -18 -10 -21 -21 -6
-17 -9 -19 -16 -8 -6 9 -9 10 -9 2 0 -15 -62 -35 -117 -37 -13 -1 -23 -3 -23
-6 0 -3 -28 -4 -62 -2 -106 4 -128 7 -128 14 0 5 -9 8 -20 8 -11 0 -20 5 -20
12 0 6 -3 8 -7 5 -3 -4 -17 0 -30 8 -13 9 -23 14 -23 11 0 -5 -77 73 -98 98
-7 9 -20 32 -27 51 -8 18 -19 37 -25 40 -8 5 -7 12 2 23 10 12 10 14 1 8 -9
-5 -13 0 -13 13 0 12 -3 21 -7 21 -5 0 -7 33 -7 72 2 105 7 148 16 148 4 0 5
7 2 15 -4 8 -2 15 3 15 5 0 10 10 10 22 1 13 7 24 13 26 5 2 10 10 10 18 0 8
7 14 16 14 8 0 13 4 9 10 -8 13 35 61 48 53 6 -3 7 -1 3 6 -4 6 -3 18 3 25 7
8 11 18 10 22 -4 23 3 32 21 27 12 -3 18 -8 16 -11z m-300 -246 c-1 -19 -4
-32 -8 -30 -4 3 -7 -4 -7 -13 -3 -105 -1 -154 4 -183 4 -19 8 -41 8 -47 0 -7
4 -13 8 -13 5 0 6 -6 3 -14 -3 -8 -1 -17 5 -21 6 -3 11 -15 11 -25 0 -10 7
-26 16 -34 8 -9 13 -16 9 -16 -3 0 3 -13 14 -29 12 -16 21 -33 21 -38 0 -4 9
-14 20 -21 11 -7 20 -20 20 -29 0 -9 3 -13 7 -10 3 4 16 -5 29 -18 13 -14 28
-25 34 -25 5 0 10 -4 10 -10 0 -5 6 -10 13 -10 7 0 23 -9 35 -20 15 -14 22
-16 23 -8 0 10 2 10 6 1 2 -7 10 -13 17 -13 7 0 21 -7 32 -16 12 -10 14 -14 4
-11 -8 2 -23 0 -32 -5 -12 -6 -18 -5 -18 3 0 9 -3 9 -14 0 -9 -8 -16 -8 -20
-2 -4 5 -15 8 -26 6 -11 -2 -20 0 -20 5 0 5 -7 7 -15 4 -8 -4 -15 -1 -15 5 0
6 -7 8 -15 5 -8 -4 -15 -1 -15 6 0 6 -4 8 -10 5 -5 -3 -10 -1 -10 4 0 6 -3 10
-8 9 -28 -6 -152 93 -152 122 0 5 -4 10 -9 10 -8 0 -16 20 -19 43 0 4 -8 19
-17 33 -9 14 -17 48 -18 75 -1 27 -4 49 -7 49 -3 0 -4 24 -3 53 0 28 2 52 3
52 1 0 3 11 5 25 5 28 12 62 15 70 1 3 2 8 1 13 0 4 3 7 7 7 5 0 14 16 22 35
8 19 17 35 22 35 4 0 8 7 8 15 0 8 6 12 13 9 8 -3 13 -19 13 -38z"/>
</g>
</svg>
