<svg width="60" height="61" viewBox="0 0 60 61" fill="none" xmlns="http://www.w3.org/2000/svg">
<g opacity="0.9" clip-path="url(#clip0_185_1840)">
<path d="M59.6156 17.199C59.4836 17.0526 59.3243 16.937 59.1499 16.855V11.9083C59.1499 11.4147 58.7565 11.0148 58.271 11.0148C57.7855 11.0148 57.3921 11.4147 57.3921 11.9083V16.7161H55.7051V11.9083C55.7051 11.4147 55.3117 11.0148 54.8262 11.0148C54.3407 11.0148 53.9473 11.4147 53.9473 11.9083V16.7161H52.2602V11.9083C52.2602 11.4147 51.8668 11.0148 51.3813 11.0148C50.8958 11.0148 50.5024 11.4147 50.5024 11.9083V16.506C48.4153 13.3528 45.6388 10.7002 42.4019 8.78552C38.6516 6.56712 34.363 5.39453 30.0001 5.39453C27.1843 5.39453 24.4222 5.87264 21.7907 6.81552C21.333 6.97946 21.0926 7.48974 21.254 7.95523C21.4154 8.42059 21.9173 8.66542 22.375 8.50089C24.8183 7.62544 27.3837 7.18164 30.0001 7.18164C34.0529 7.18164 38.0356 8.27047 41.5177 10.3303C44.8647 12.3101 47.6829 15.1385 49.6765 18.5133C49.835 19.986 50.3828 21.3537 51.2306 22.3815C51.8532 23.1363 52.1961 24.0593 52.1961 24.9805V27.5491C51.7125 27.8105 51.3821 28.3277 51.3821 28.9223V38.9567C49.7213 43.2874 46.8542 46.9878 43.0851 49.6536C39.2343 52.378 34.7095 53.818 30.0001 53.818C25.284 53.818 20.7539 52.3743 16.8998 49.6428C13.1557 46.9895 10.3023 43.3162 8.6426 39.0168V28.9223C8.6426 28.3277 8.31236 27.8104 7.82908 27.549V24.9805C7.82908 24.0593 8.17197 23.1363 8.7947 22.3815C9.66541 21.3258 10.2051 19.9568 10.3542 18.4618C12.4057 15.0086 15.315 12.139 18.7743 10.161C19.1973 9.91914 19.3475 9.37419 19.1095 8.94409C18.8714 8.514 18.3355 8.3615 17.9125 8.60335C14.8663 10.3452 12.2158 12.7287 10.1432 15.5735C9.46514 12.9308 7.50564 11.0148 5.19903 11.0148C2.33227 11.0148 0 13.9733 0 17.6097C0 19.4335 0.569415 21.128 1.60348 22.3815C2.2261 23.1363 2.56899 24.0593 2.56899 24.9805V27.549C2.08571 27.8104 1.75559 28.3276 1.75559 28.9223V32.3357C1.75559 32.8293 2.14899 33.2293 2.6345 33.2293C3.12001 33.2293 3.51341 32.8293 3.51341 32.3357V29.1547H6.8849V46.6505C6.8849 47.5039 6.20204 48.1982 5.36263 48.1982H5.03567C4.19638 48.1982 3.51352 47.5039 3.51352 46.6505V36.5058C3.51352 36.0122 3.12012 35.6122 2.63461 35.6122C2.14911 35.6122 1.75571 36.0122 1.75571 36.5058V46.6505C1.75571 48.4893 3.22712 49.9853 5.03567 49.9853H5.36263C7.1713 49.9853 8.64271 48.4892 8.64271 46.6505V43.1136C10.4444 46.2675 12.9055 48.9904 15.8948 51.1088C20.0452 54.0502 24.9228 55.605 30.0002 55.605C35.0705 55.605 39.9424 54.0542 44.0893 51.1203C47.0988 48.991 49.575 46.2488 51.3822 43.0706V46.6503C51.3822 48.4891 52.8538 49.985 54.6623 49.985H54.9905C56.7985 49.985 58.2694 48.489 58.2694 46.6503V44.0903C58.2694 43.5967 57.876 43.1967 57.3905 43.1967C56.905 43.1967 56.5116 43.5967 56.5116 44.0903V46.6505C56.5116 47.5039 55.8292 48.1982 54.9905 48.1982H54.6623C53.8229 48.1982 53.1401 47.5039 53.1401 46.6505V29.1547H56.5117V39.9202C56.5117 40.4138 56.9051 40.8138 57.3906 40.8138C57.8761 40.8138 58.2695 40.4138 58.2695 39.9202V28.9222C58.2695 28.3277 57.9395 27.8105 57.4563 27.5491V24.9803C57.4563 24.0591 57.7992 23.1362 58.4218 22.3814C59.3048 21.311 59.8636 19.8722 59.9948 18.3297C60.0298 17.917 59.8916 17.5048 59.6156 17.199ZM1.75782 17.6097C1.75782 14.9586 3.30153 12.8019 5.19903 12.8019C7.09642 12.8019 8.64013 14.9587 8.64013 17.6097C8.64013 18.9937 8.20549 20.3144 7.44775 21.2331C6.56005 22.3091 6.07114 23.6399 6.07114 24.9805V27.3676H4.32681V24.9805C4.32681 23.64 3.83802 22.3091 2.95032 21.2331C2.19247 20.3144 1.75782 18.9937 1.75782 17.6097ZM57.0749 21.2331C56.1872 22.3091 55.6983 23.6399 55.6983 24.9805V27.3676H53.9539V24.9805C53.9539 23.6399 53.465 22.3091 52.5773 21.2331C51.9852 20.5153 51.5886 19.5556 51.4451 18.5032H58.2071C58.0635 19.5556 57.667 20.5153 57.0749 21.2331Z" fill="#E4C590"/>
<path d="M36.4296 48.8972C36.6126 49.3542 37.1252 49.574 37.5749 49.3882C41.2247 47.8785 44.3353 45.3281 46.5709 42.0124C48.8607 38.6162 50.0711 34.6365 50.0711 30.5035C50.0711 19.2652 41.078 10.1221 30.0239 10.1221C18.9698 10.1221 9.97656 19.2652 9.97656 30.5035C9.97656 41.7411 18.9698 50.8837 30.0239 50.8837C31.1636 50.8837 32.3076 50.785 33.4248 50.5899C33.8506 50.528 34.1776 50.1555 34.1776 49.7054C34.1829 49.1571 33.6782 48.7272 33.1483 48.8249C32.3941 48.9573 31.6261 49.0415 30.856 49.0768V46.0044C30.856 45.5108 30.4626 45.1109 29.9771 45.1109C29.4916 45.1109 29.0982 45.5108 29.0982 46.0044V49.0728C26.4104 48.9359 23.8741 48.2058 21.6125 47.0099L22.1708 46.027C22.4135 45.5996 22.2694 45.0531 21.8491 44.8064C21.4287 44.5597 20.8912 44.7058 20.6485 45.1334L20.0938 46.1101C17.9053 44.666 16.0375 42.7601 14.6266 40.5282L15.5834 39.9666C16.0038 39.7199 16.1478 39.1734 15.9051 38.746C15.6625 38.3185 15.1246 38.1724 14.7045 38.419L13.7483 38.9803C12.5838 36.679 11.8786 34.1002 11.7548 31.3698H14.7499C15.2354 31.3698 15.6288 30.9698 15.6288 30.4762C15.6288 29.9826 15.2354 29.5827 14.7499 29.5827H11.7568C11.8884 26.8534 12.6017 24.2772 13.7726 21.9791L14.7277 22.5398C14.8661 22.621 15.0173 22.6596 15.1663 22.6596C15.4701 22.6596 15.7654 22.4994 15.9283 22.2127C16.171 21.7854 16.027 21.2389 15.6066 20.9921L14.6553 20.4336C16.0718 18.2067 17.9433 16.3058 20.1352 14.8679L20.6887 15.8426C20.8515 16.1293 21.1469 16.2895 21.4506 16.2895C21.5997 16.2895 21.7509 16.2509 21.8893 16.1697C22.3096 15.9229 22.4537 15.3764 22.211 14.9491L21.6563 13.9723C23.9198 12.7833 26.4571 12.0611 29.1446 11.9311V14.6437C28.2315 15.0035 27.5812 15.9039 27.5812 16.9577V25.8986C26.8607 26.2916 26.2433 26.8547 25.7798 27.5343H21.0004C19.3791 27.5343 18.0602 28.8752 18.0602 30.5235C18.0602 32.1718 19.3791 33.5128 21.0004 33.5128H25.8131C26.7439 34.8461 28.2733 35.7187 30.0004 35.7187C32.8309 35.7187 35.1336 33.3777 35.1336 30.4999C35.1336 28.5303 34.0545 26.8124 32.4659 25.9242V16.9577C32.4659 15.9039 31.8157 15.0035 30.9025 14.6437V11.931C33.5924 12.061 36.1316 12.7844 38.3966 13.9751L37.8301 14.9727C37.5874 15.4 37.7314 15.9465 38.1518 16.1933C38.2902 16.2745 38.4413 16.3131 38.5904 16.3131C38.8942 16.3131 39.1895 16.1529 39.3524 15.8662L39.9174 14.8713C42.1137 16.313 43.9882 18.2196 45.4051 20.4533L44.4174 21.033C43.9971 21.2797 43.8531 21.8262 44.0958 22.2536C44.2585 22.5402 44.554 22.7005 44.8577 22.7005C45.0068 22.7005 45.158 22.6619 45.2964 22.5806L46.2858 21.9998C47.4572 24.3058 48.1673 26.8914 48.2926 29.6298H45.2509C44.7654 29.6298 44.372 30.0298 44.372 30.5234C44.372 31.017 44.7654 31.417 45.2509 31.417H48.289C48.1615 34.096 47.4746 36.6864 46.2711 39.0457L45.2732 38.4598C44.8529 38.2131 44.3154 38.3594 44.0726 38.7869C43.8299 39.2142 43.9739 39.7607 44.3942 40.0075L45.3874 40.5904C45.2998 40.7282 45.2126 40.8661 45.1212 41.0017C43.7197 43.0805 41.9414 44.8294 39.886 46.1672L39.3123 45.1569C39.0697 44.7295 38.5319 44.5832 38.1117 44.8298C37.6913 45.0766 37.5473 45.6231 37.79 46.0504L38.3604 47.0548C37.8888 47.3002 37.407 47.528 36.9129 47.7325C36.4629 47.9188 36.2468 48.44 36.4296 48.8972ZM21.0004 31.7256C20.3485 31.7256 19.818 31.1864 19.818 30.5235C19.818 29.8607 20.3484 29.3214 21.0004 29.3214H25.0008C24.9145 29.7004 24.8673 30.0945 24.8673 30.4999C24.8673 30.9222 24.9181 31.3322 25.0116 31.7256H21.0004ZM30.0004 33.9314C28.1393 33.9314 26.6251 32.392 26.6251 30.4998C26.6251 28.6076 28.1393 27.0682 30.0004 27.0682C31.8616 27.0682 33.3758 28.6076 33.3758 30.4998C33.3758 32.392 31.8616 33.9314 30.0004 33.9314ZM30.0004 25.2812C29.7762 25.2812 29.5559 25.2975 29.3391 25.326V16.9577C29.3391 16.5739 29.6462 16.2618 30.0236 16.2618C30.4011 16.2618 30.7081 16.5739 30.7081 16.9577V25.3321C30.4766 25.2993 30.2407 25.2812 30.0004 25.2812Z" fill="#E4C590"/>
</g>
<defs>
<clipPath id="clip0_185_1840">
<rect width="60" height="61" fill="white"/>
</clipPath>
</defs>
</svg>
