<svg width="60" height="60" viewBox="0 0 60 60" fill="none" xmlns="http://www.w3.org/2000/svg">
<path d="M59.2919 14.4841C58.7818 13.9272 58.0561 13.6079 57.3009 13.6079H56.4997C54.3986 13.6079 52.6758 15.1862 52.4921 17.2792L51.6253 27.1556C51.5485 28.0309 50.8279 28.691 49.9492 28.691H42.4461C40.0419 28.691 38.0859 30.6469 38.0859 33.0512V33.4844C38.0859 34.9369 39.2675 36.1185 40.7201 36.1185H42.3282L40.7446 41.2906C40.7434 41.2945 40.7422 41.2983 40.741 41.3022L39.5305 45.2556C39.3884 45.7198 39.6494 46.2112 40.1135 46.3533C40.1993 46.3796 40.286 46.3921 40.3712 46.3921C40.7473 46.3921 41.0954 46.1487 41.2112 45.7703L42.2321 42.4362H54.2872L55.3081 45.7703C55.4239 46.1487 55.772 46.3921 56.1481 46.3921C56.2334 46.3921 56.3202 46.3796 56.4058 46.3533C56.8699 46.2112 57.131 45.7197 56.9888 45.2556L54.1157 35.8729C54.6202 35.7301 55.1074 35.5269 55.5644 35.2649C55.9855 35.0235 56.1311 34.4865 55.8897 34.0654C55.6483 33.6444 55.1111 33.4987 54.6901 33.7401C53.9818 34.1462 53.1738 34.3608 52.3534 34.3608H43.5172C43.5143 34.3608 43.5114 34.3608 43.5085 34.3608H40.7203C40.2371 34.3608 39.844 33.9678 39.844 33.4845V33.0513C39.844 31.6163 41.0114 30.4489 42.4464 30.4489H49.9494C51.7462 30.4489 53.2196 29.0991 53.3766 27.3093L54.2434 17.4328C54.3467 16.2544 55.3168 15.3656 56.4998 15.3656H57.301C57.5684 15.3656 57.8153 15.4742 57.9959 15.6715C58.1766 15.8687 58.2634 16.124 58.2399 16.3905L57.0397 30.0676C57.0102 30.4048 56.9444 30.7386 56.8445 31.0594C56.7001 31.5229 56.9588 32.0157 57.4223 32.1599C57.8864 32.3043 58.3784 32.0455 58.5229 31.5822C58.6602 31.1414 58.7503 30.6835 58.7909 30.2212L59.9912 16.5442C60.0568 15.7919 59.802 15.041 59.2919 14.4841ZM44.1663 36.1187H52.3524L53.7486 40.6784H42.77L44.1663 36.1187Z" fill="#E4C590"/>
<path d="M17.5549 28.691H10.0519C9.17309 28.691 8.45262 28.031 8.37575 27.1556L7.50903 17.2792C7.3254 15.1862 5.60251 13.6079 3.50146 13.6079H2.70025C1.9451 13.6079 1.21936 13.9272 0.70924 14.4841C0.199124 15.041 -0.0556413 15.7919 0.0102179 16.5444L1.21045 30.2214C1.35213 31.8355 2.08807 33.327 3.28279 34.4215C4.03337 35.1092 4.92458 35.6024 5.88505 35.8743L3.01232 45.2557C2.87017 45.7199 3.13127 46.2113 3.59533 46.3534C3.68111 46.3797 3.76783 46.3922 3.85302 46.3922C4.22908 46.3922 4.57724 46.1488 4.69302 45.7704L5.71396 42.4363H17.769L18.7899 45.7704C18.9057 46.1488 19.2538 46.3922 19.6299 46.3922C19.7153 46.3922 19.802 46.3797 19.8876 46.3534C20.3517 46.2113 20.6128 45.7198 20.4706 45.2557L19.2601 41.3023C19.2589 41.2984 19.2578 41.2946 19.2566 41.2907L17.6729 36.1187H19.2811C20.7336 36.1187 21.9151 34.937 21.9151 33.4845V33.0513C21.9151 30.6469 19.9591 28.691 17.5549 28.691ZM6.2522 40.6783L7.64837 36.1185H15.8345L17.2307 40.6783H6.2522ZM20.1573 33.4844C20.1573 33.9677 19.7642 34.3607 19.2811 34.3607H16.4934C16.4899 34.3607 16.4865 34.3607 16.483 34.3607H7.6479C7.45993 34.3607 7.27501 34.3486 7.0929 34.3276C7.09278 34.3276 7.09255 34.3276 7.09231 34.3276C4.89341 34.0734 3.15974 32.3278 2.96146 30.0676L1.76123 16.3906C1.73779 16.124 1.82451 15.8687 2.00521 15.6715C2.1858 15.4742 2.4326 15.3656 2.70013 15.3656H3.50134C4.68435 15.3656 5.65443 16.2542 5.75778 17.4328L6.6245 27.3092V27.3091C6.78153 29.0989 8.25493 30.4487 10.0518 30.4487H17.5548C18.9897 30.4487 20.1572 31.6161 20.1572 33.051L20.1573 33.4844Z" fill="#E4C590"/>
<path d="M36.6726 43.4933C36.3099 42.0991 35.0506 41.1254 33.61 41.1254H33.0661V25.1254H43.8888C44.5122 25.1254 45.0957 24.8482 45.4897 24.3651C45.8836 23.8818 46.0377 23.2544 45.9121 22.6436C45.5341 20.8056 43.8979 19.4717 42.0216 19.4717H23.7488C23.2633 19.4717 22.8699 19.8652 22.8699 20.3506C22.8699 20.836 23.2633 21.2295 23.7488 21.2295H42.0216C43.0676 21.2295 43.9796 21.9732 44.1903 22.9976C44.216 23.1223 44.1618 23.2119 44.1274 23.2544C44.0928 23.2967 44.0159 23.3677 43.8888 23.3677H16.1091C15.9819 23.3677 15.905 23.2967 15.8705 23.2544C15.836 23.2121 15.7819 23.1223 15.8075 22.9977C16.0182 21.9732 16.9302 21.2295 17.9762 21.2295H19.6267C20.1122 21.2295 20.5056 20.836 20.5056 20.3506C20.5056 19.8652 20.1122 19.4717 19.6267 19.4717H17.9762C16.0998 19.4717 14.4636 20.8056 14.0857 22.6437C13.9602 23.2545 14.1142 23.8819 14.5082 24.3651C14.9021 24.8482 15.4856 25.1254 16.1091 25.1254H26.9319V41.1255H26.3879C24.9473 41.1255 23.688 42.0993 23.3253 43.4933L23.119 44.2863C22.9869 44.7943 23.0952 45.3237 23.4161 45.739C23.7372 46.1542 24.2224 46.3924 24.7472 46.3924H35.2507C35.7755 46.3924 36.2606 46.1543 36.5817 45.739C36.9026 45.3238 37.0109 44.7943 36.8789 44.2863L36.6726 43.4933ZM28.6897 25.1254H31.3084V41.1255H28.6897V25.1254ZM24.8447 44.6345L25.0265 43.9358C25.1877 43.3161 25.7475 42.8834 26.3878 42.8834H33.6099C34.2502 42.8834 34.81 43.3161 34.9712 43.9358L35.153 44.6345H24.8447Z" fill="#E4C590"/>
</svg>
