<svg width="60" height="60" viewBox="0 0 60 60" fill="none" xmlns="http://www.w3.org/2000/svg">
<path d="M45.6263 39.5034L38.4375 37.7063V32.745C39.7425 31.1466 40.7222 29.2228 41.0841 27.0844C42.6684 26.6728 43.5722 25.0369 43.9078 23.6531C43.9519 23.6541 43.9903 23.6569 44.0363 23.6569C44.8491 23.6569 45.8325 23.5416 46.7925 23.1488C46.7991 23.1469 46.8037 23.1422 46.8103 23.1403C47.3606 22.9134 47.9025 22.5966 48.4003 22.1522C49.8759 20.8341 50.625 18.7434 50.625 15.9375C50.625 7.59656 41.2416 0 30.9375 0C23.8706 0 21.2044 2.99719 20.2097 5.02781C19.8553 5.17875 19.4925 5.37656 19.14 5.66625C17.6475 6.88969 16.8881 9.06375 16.8778 12.1256V12.1294C16.8769 12.15 16.875 12.1678 16.875 12.1875V18.75V20.3522C16.4137 20.6653 15.9375 21.2822 15.9375 22.5C15.9375 23.9156 16.8469 26.5406 18.9094 27.0825C19.2675 29.2791 20.2594 31.1906 21.5625 32.7572V37.7063L14.3737 39.5044C9.77437 40.6528 6.5625 44.7666 6.5625 49.5075V59.0625C6.5625 59.5809 6.9825 60 7.5 60C8.0175 60 8.4375 59.5809 8.4375 59.0625V49.5075C8.4375 45.6291 11.0653 42.2625 14.8284 41.3222L22.3106 39.4519C23.3663 40.17 26.5181 42.1059 29.8069 42.18L36.5625 44.7122V59.0625C36.5625 59.5809 36.9825 60 37.5 60C38.0175 60 38.4375 59.5809 38.4375 59.0625V44.0625C38.4375 43.6716 38.1947 43.3219 37.8291 43.1841L33.4894 41.5566C35.4216 40.9031 36.9994 39.9188 37.6884 39.45L45.1706 41.3203C48.9347 42.2625 51.5625 45.6291 51.5625 49.5075V59.0625C51.5625 59.5809 51.9825 60 52.5 60C53.0175 60 53.4375 59.5809 53.4375 59.0625V49.5075C53.4375 44.7666 50.2256 40.6528 45.6263 39.5034ZM23.4375 34.6256C25.2966 36.1659 27.3787 37.1362 29.0625 37.4109V40.2441C26.64 39.9319 24.3206 38.535 23.4375 37.9472V34.6256ZM30.9375 37.4231C32.7272 37.1578 34.7681 36.1706 36.5625 34.6566V37.9472C35.6794 38.535 33.36 39.9319 30.9375 40.2441V37.4231ZM19.4822 20.3691C19.2319 20.2509 18.9881 20.1675 18.75 20.1066V19.0022C19.0519 18.5634 19.7109 18.1041 21.0169 17.7244C20.5594 18.8916 19.9144 19.8244 19.4822 20.3691ZM18.75 16.6144V12.4369C19.6313 10.9622 22.9453 8.4375 30 8.4375C37.0547 8.4375 40.3688 10.9622 41.25 12.4369V16.6144C39.2119 15.4997 35.6241 15 30 15C24.3759 15 20.7881 15.4997 18.75 16.6144ZM41.25 19.0022V20.1066C41.0119 20.1675 40.7672 20.2509 40.5159 20.3691C40.0837 19.8272 39.4397 18.8962 38.9822 17.7234C40.2881 18.1031 40.9481 18.5634 41.25 19.0022ZM41.25 24.8419V22.1034C41.7066 21.8766 42.0019 21.8634 42.0675 21.8991C42.0863 21.9094 42.1875 22.0631 42.1875 22.5C42.1875 23.1637 41.8369 24.2316 41.25 24.8419ZM20.3053 7.13531C21.2194 6.3675 22.2628 6.53531 22.3247 6.54562C22.8291 6.645 23.3194 6.31313 23.4187 5.80875C23.52 5.30063 23.1909 4.8075 22.6838 4.70531C22.6819 4.70531 22.6641 4.7025 22.6594 4.70156C23.8519 3.31125 26.2209 1.875 30.9375 1.875C41.1328 1.875 48.75 9.29906 48.75 15.9375C48.75 17.7938 48.3778 19.215 47.6522 20.1891C47.5031 18.0244 46.4241 16.0369 45.6628 15.2747C45.2962 14.9081 44.7038 14.9081 44.3372 15.2747C43.9706 15.6412 43.9706 16.2338 44.3372 16.6003C44.9381 17.2022 46.1138 19.4644 45.6966 21.5466C45.1022 21.7284 44.505 21.7838 43.9912 21.78C43.845 21.0291 43.4831 20.5959 43.1241 20.3522V18.75V12.1875C43.1241 12.1772 43.1184 12.1697 43.1184 12.1594C43.1166 12.0966 43.0959 12.0366 43.0809 11.9747C43.0659 11.9137 43.0584 11.8528 43.0331 11.7975C43.0284 11.7881 43.0303 11.7778 43.0256 11.7694C42.9131 11.5434 42.7566 11.2978 42.5634 11.0428C43.2919 11.0963 43.8272 11.2209 43.8366 11.2238C43.9116 11.2406 43.9875 11.25 44.0616 11.25C44.4825 11.25 44.8659 10.965 44.9719 10.5384C45.0966 10.0359 44.7919 9.52875 44.2903 9.40312C44.2106 9.38344 42.4434 8.95875 40.6181 9.25125C39.7331 8.6475 38.6006 8.07469 37.2066 7.6125C37.905 7.50562 38.4281 7.5 38.4384 7.5C38.9559 7.49813 39.375 7.07812 39.3741 6.56156C39.3741 6.04406 38.955 5.625 38.4375 5.625C38.3213 5.625 35.7094 5.64094 33.7894 6.82688C32.6437 6.66188 31.3894 6.5625 30 6.5625C29.2781 6.5625 28.6031 6.59531 27.9478 6.64313C29.0447 5.90906 30.2109 5.60156 30.2288 5.59687C30.7303 5.47031 31.0341 4.96219 30.9094 4.46062C30.7838 3.95812 30.2756 3.6525 29.7722 3.77813C29.6306 3.81375 26.4572 4.63594 24.9469 7.04437C22.2825 7.58719 20.3513 8.52375 19.0322 9.50719C19.2881 8.44125 19.7128 7.63219 20.3053 7.13531ZM17.9325 21.8991C17.9981 21.8625 18.2925 21.8766 18.75 22.1034V24.8419C18.1631 24.2316 17.8125 23.1637 17.8125 22.5C17.8125 22.0631 17.9138 21.9094 17.9325 21.8991ZM20.625 21.9244C21.1941 21.2794 22.5094 19.5797 23.1169 17.2819C24.7744 17.0325 27.0066 16.875 30 16.875C32.9934 16.875 35.2256 17.0325 36.8831 17.2819C37.4906 19.5797 38.8059 21.2784 39.375 21.9234V25.3125C39.375 30.6572 34.0519 35.625 30 35.625C26.7909 35.625 20.625 31.2694 20.625 25.3125V21.9244Z" fill="#E4C590"/>
<path d="M16.875 53.4375C16.3575 53.4375 15.9375 53.8566 15.9375 54.375V59.0625C15.9375 59.5809 16.3575 60 16.875 60C17.3925 60 17.8125 59.5809 17.8125 59.0625V54.375C17.8125 53.8566 17.3925 53.4375 16.875 53.4375Z" fill="#E4C590"/>
<path d="M43.125 53.4375C42.6075 53.4375 42.1875 53.8566 42.1875 54.375V59.0625C42.1875 59.5809 42.6075 60 43.125 60C43.6425 60 44.0625 59.5809 44.0625 59.0625V54.375C44.0625 53.8566 43.6425 53.4375 43.125 53.4375Z" fill="#E4C590"/>
<path d="M33.75 47.8125C34.2678 47.8125 34.6875 47.3928 34.6875 46.875C34.6875 46.3572 34.2678 45.9375 33.75 45.9375C33.2322 45.9375 32.8125 46.3572 32.8125 46.875C32.8125 47.3928 33.2322 47.8125 33.75 47.8125Z" fill="#E4C590"/>
<path d="M26.25 47.8125C26.7678 47.8125 27.1875 47.3928 27.1875 46.875C27.1875 46.3572 26.7678 45.9375 26.25 45.9375C25.7322 45.9375 25.3125 46.3572 25.3125 46.875C25.3125 47.3928 25.7322 47.8125 26.25 47.8125Z" fill="#E4C590"/>
<path d="M33.75 53.4375C34.2678 53.4375 34.6875 53.0178 34.6875 52.5C34.6875 51.9822 34.2678 51.5625 33.75 51.5625C33.2322 51.5625 32.8125 51.9822 32.8125 52.5C32.8125 53.0178 33.2322 53.4375 33.75 53.4375Z" fill="#E4C590"/>
<path d="M26.25 53.4375C26.7678 53.4375 27.1875 53.0178 27.1875 52.5C27.1875 51.9822 26.7678 51.5625 26.25 51.5625C25.7322 51.5625 25.3125 51.9822 25.3125 52.5C25.3125 53.0178 25.7322 53.4375 26.25 53.4375Z" fill="#E4C590"/>
<path d="M33.75 59.0625C34.2678 59.0625 34.6875 58.6428 34.6875 58.125C34.6875 57.6072 34.2678 57.1875 33.75 57.1875C33.2322 57.1875 32.8125 57.6072 32.8125 58.125C32.8125 58.6428 33.2322 59.0625 33.75 59.0625Z" fill="#E4C590"/>
<path d="M26.25 59.0625C26.7678 59.0625 27.1875 58.6428 27.1875 58.125C27.1875 57.6072 26.7678 57.1875 26.25 57.1875C25.7322 57.1875 25.3125 57.6072 25.3125 58.125C25.3125 58.6428 25.7322 59.0625 26.25 59.0625Z" fill="#E4C590"/>
</svg>
