<svg xmlns="http://www.w3.org/2000/svg" version="1.1" xmlns:xlink="http://www.w3.org/1999/xlink" xmlns:svgjs="http://svgjs.com/svgjs" width="1440" height="560" preserveAspectRatio="none" viewBox="0 0 1440 560"><g mask="url(&quot;#SvgjsMask1714&quot;)" fill="none"><rect width="1440" height="560" x="0" y="0" fill="url(#SvgjsLinearGradient1715)"></rect><path d="M610.23 407.97 a144.79 144.79 0 1 0 289.58 0 a144.79 144.79 0 1 0 -289.58 0z" fill="rgba(210, 242, 249, 0.4)" class="triangle-float2"></path><path d="M562.962,210.069C585.201,208.835,604.475,197.546,617.138,179.223C632.282,157.311,645.763,130.79,634.407,106.696C621.751,79.845,592.646,64.155,562.962,64.283C533.49,64.41,506.59,81.38,492.58,107.309C479.214,132.047,481.377,162.676,497.266,185.874C511.4,206.51,537.988,211.455,562.962,210.069" fill="rgba(210, 242, 249, 0.4)" class="triangle-float1"></path><path d="M413.319,395.507C447.332,392.559,475.718,373.004,493.863,344.085C513.487,312.81,525.891,275.123,509.668,241.956C491.637,205.092,454.349,178.614,413.319,179.416C373.404,180.197,343.87,211.396,323.283,245.601C301.826,281.251,282.898,324.842,304.322,360.512C325.38,395.573,372.573,399.038,413.319,395.507" fill="rgba(210, 242, 249, 0.4)" class="triangle-float3"></path><path d="M-96.82 245.67 a182.92 182.92 0 1 0 365.84 0 a182.92 182.92 0 1 0 -365.84 0z" fill="rgba(210, 242, 249, 0.4)" class="triangle-float1"></path><path d="M865.57,441.549C888.256,440.185,907.493,426.558,918.932,406.919C930.457,387.133,933.535,363.285,922.997,342.956C911.586,320.942,890.334,302.716,865.57,303.976C842.219,305.164,829.438,328.255,817.448,348.328C804.975,369.21,788.646,392.469,799.803,414.082C811.483,436.708,840.153,443.077,865.57,441.549" fill="rgba(210, 242, 249, 0.4)" class="triangle-float1"></path><path d="M1249.6 15.55 a95.67 95.67 0 1 0 191.34 0 a95.67 95.67 0 1 0 -191.34 0z" fill="rgba(210, 242, 249, 0.4)" class="triangle-float1"></path></g><defs><mask id="SvgjsMask1714"><rect width="1440" height="560" fill="#ffffff"></rect></mask><linearGradient x1="50%" y1="0%" x2="50%" y2="100%" gradientUnits="userSpaceOnUse" id="SvgjsLinearGradient1715"><stop stop-color="rgba(246, 249, 251, 1)" offset="0"></stop><stop stop-color="rgba(95, 182, 224, 1)" offset="1"></stop></linearGradient><style>
            @keyframes float1 {
                0%{transform: translate(0, 0)}
                50%{transform: translate(-10px, 0)}
                100%{transform: translate(0, 0)}
            }

            .triangle-float1 {
                animation: float1 5s infinite;
            }

            @keyframes float2 {
                0%{transform: translate(0, 0)}
                50%{transform: translate(-5px, -5px)}
                100%{transform: translate(0, 0)}
            }

            .triangle-float2 {
                animation: float2 4s infinite;
            }

            @keyframes float3 {
                0%{transform: translate(0, 0)}
                50%{transform: translate(0, -10px)}
                100%{transform: translate(0, 0)}
            }

            .triangle-float3 {
                animation: float3 6s infinite;
            }
        </style></defs></svg>